<?xml version="1.0" encoding="UTF-8"?> <!-- Generator: Adobe Illustrator 16.0.0, SVG Export Plug-In . SVG Version: 6.00 Build 0) --> <svg xmlns="http://www.w3.org/2000/svg" xmlns:xlink="http://www.w3.org/1999/xlink" x="0px" y="0px" width="413.832px" height="47.501px" viewBox="0 0 413.832 47.501" xml:space="preserve"> <g id="Layer_1"> </g> <g id="Layer_2"> <polygon fill="#062674" points="79.796,14.822 66.731,14.822 66.731,2.871 60.71,2.871 60.71,33.768 66.731,33.768 66.731,20.009 79.796,20.009 79.796,33.768 85.818,33.768 85.818,2.871 79.796,2.871 "></polygon> <path fill="#062674" d="M139.782,13.061c-2.648-0.021-5.105,1.375-6.441,3.661c-0.507-1.022-2.128-3.661-6.346-3.661 c-2.342-0.029-4.559,1.053-5.976,2.917v-2.269h-5.652v15.723h-15.097c-3.242,0-5.56-2.501-5.56-5.697 c0-3.195,2.318-5.651,5.56-5.651c3.241,0,5.56,2.437,5.56,5.629v1.906h5.095V13.709h-5.651v2.593 c-1.907-2.963-4.912-3.241-6.441-3.241c-5.926,0-9.358,4.725-9.358,10.655c0,5.93,3.478,10.102,9.637,10.102l6.163-0.05h15.746 V23.528c0-1.063,0.046-2.669,0.789-3.89c0.604-1.141,1.815-1.827,3.104-1.762c0.889-0.04,1.746,0.338,2.314,1.022 c0.416,0.507,0.927,1.574,0.927,3.936v10.933h5.652V23.528c0-1.063,0.045-2.669,0.785-3.89c0.604-1.141,1.815-1.827,3.104-1.762 c0.89-0.041,1.748,0.338,2.318,1.022c0.416,0.507,0.923,1.574,0.923,3.936v10.933h5.652V21.184c0-2.224-0.092-3.939-1.388-5.651 C144.412,14.498,142.886,13.061,139.782,13.061z"></path> <polygon fill="#062674" points="172.853,25.29 167.479,13.709 164.886,13.709 159.513,25.29 154.231,13.709 147.932,13.709 158.121,33.768 160.901,33.768 166.183,21.954 171.464,33.768 174.241,33.768 184.434,13.709 178.134,13.709 "></polygon> <path fill="#062674" d="M204.348,15.887c-1.712-1.575-4.309-2.826-8.107-2.826s-6.391,1.251-8.104,2.826 c-4.336,4.098-4.53,10.936-0.432,15.272c0.14,0.147,0.284,0.291,0.432,0.431c1.712,1.575,4.305,2.826,8.104,2.826 s6.395-1.251,8.107-2.826c4.336-4.098,4.53-10.936,0.432-15.271C204.64,16.17,204.496,16.026,204.348,15.887z M196.24,29.432 c-3.134,0.013-5.685-2.518-5.697-5.651s2.518-5.685,5.652-5.697s5.685,2.518,5.697,5.651c0,0.016,0,0.03,0,0.046 c0.036,3.085-2.436,5.615-5.521,5.651C196.327,29.433,196.284,29.433,196.24,29.432z"></path> <path fill="#062674" d="M219.307,13.941c-1.078,0.673-1.945,1.637-2.502,2.78v-3.013h-5.65v20.059h5.65v-9.637 c0-1.388,0.047-3.104,1.111-4.446c0.93-1.094,2.316-1.692,3.752-1.621c0.938-0.051,1.867,0.21,2.643,0.74l0.74-5.277 c-0.77-0.298-1.586-0.455-2.41-0.466C221.469,13.03,220.311,13.336,219.307,13.941z"></path> <polygon fill="#062674" points="233.988,6.853 228.338,6.853 228.338,13.709 226.113,13.709 226.113,18.525 228.338,18.525 228.338,33.768 233.988,33.768 233.988,18.525 237.879,18.525 237.879,13.709 233.988,13.709 "></polygon> <path fill="#062674" d="M251.775,13.061c-2.477-0.028-4.803,1.189-6.189,3.241V0h-5.67v33.768h5.67V23.528 c0-1.144,0.045-2.593,0.881-3.89c0.834-1.296,1.99-1.762,3.475-1.762c0.98-0.031,1.934,0.338,2.639,1.022 c1.021,1.063,1.066,2.825,1.066,3.936v10.933h5.652V21.184c0-1.945-0.188-3.939-1.574-5.651 C256.131,13.571,253.533,13.061,251.775,13.061z"></path> <polygon fill="#062674" points="272.988,25.104 266.781,13.709 260.203,13.709 269.744,30.755 262.381,44.373 268.771,44.373 284.941,13.709 278.545,13.709 "></polygon> <path fill="#062674" d="M308.629,5.231c-2.287-1.99-4.678-2.36-8.152-2.36h-8.984V33.76h6.021v-11.44h3.889 c3.566,0,6.102-1.018,7.83-2.73c2.359-2.364,2.547-5.697,2.547-6.902C311.779,10.468,311.131,7.455,308.629,5.231z M303.904,16.165 c-1.297,0.973-2.779,0.973-3.936,0.973h-2.455V8.076h2.082c1.438,0,3.012,0.092,4.264,0.973c1.109,0.825,1.746,2.138,1.711,3.52 C305.586,13.957,304.975,15.278,303.904,16.165z"></path> <path fill="#062674" d="M328.27,25.058c0,1.064-0.096,2.502-1.205,3.521c-1.672,1.362-4.072,1.362-5.744,0 c-1.113-1.019-1.205-2.456-1.205-3.521V13.709h-5.65V26c0,1.808,0.232,4.214,2.455,6.162c1.854,1.621,4.816,2.27,7.271,2.27 c2.457,0,5.42-0.648,7.273-2.27c2.211-1.968,2.455-4.37,2.455-6.162V13.709h-5.65V25.058z"></path> <path fill="#062674" d="M362.777,13.061c-2.648-0.021-5.105,1.375-6.441,3.661c-0.508-1.022-2.133-3.661-6.346-3.661 c-2.342-0.029-4.559,1.053-5.977,2.917v-2.269h-5.65v20.059h5.65V23.528c0-1.063,0.047-2.669,0.787-3.89 c0.605-1.14,1.814-1.826,3.104-1.762c0.891-0.041,1.748,0.338,2.318,1.022c0.416,0.507,0.928,1.574,0.928,3.936v10.933h5.65V23.528 c0-1.063,0.047-2.669,0.785-3.89c0.605-1.141,1.816-1.827,3.105-1.762c0.889-0.041,1.746,0.338,2.314,1.022 c0.42,0.507,0.926,1.574,0.926,3.936v10.933h5.652V21.184c0-2.224-0.092-3.939-1.389-5.651 C367.406,14.498,365.877,13.061,362.777,13.061z"></path> <path fill="#062674" d="M386.211,13.061c-3.707,0-5.652,1.991-6.533,3.241v-2.593h-5.65v30.664h5.65V31.171 c1.465,2.096,3.885,3.315,6.441,3.245c2.518,0.039,4.953-0.89,6.807-2.593c1.145-1.114,3.15-3.569,3.15-8.107 c0-3.985-1.525-6.483-3.01-7.967C391.23,13.975,388.764,13.007,386.211,13.061z M388.498,27.976 c-1.031,0.964-2.402,1.481-3.813,1.438c-1.359,0.025-2.68-0.453-3.707-1.343c-1.219-1.117-1.895-2.706-1.854-4.358 c-0.066-1.654,0.637-3.246,1.906-4.31c0.994-0.913,2.309-1.396,3.658-1.342c1.41,0.012,2.771,0.528,3.836,1.456 c1.1,1.129,1.717,2.642,1.717,4.218c0.012,1.595-0.625,3.125-1.764,4.241H388.498z"></path> <path fill="#062674" d="M412.752,23.853c-1.145-1.575-3.523-2.36-5.098-2.871l-1.344-0.416c-1.574-0.511-1.807-1.297-1.807-1.808 c0-0.973,0.834-1.62,2.178-1.62c1.23-0.002,2.412,0.48,3.291,1.342l2.779-3.287c-1.822-1.428-4.082-2.181-6.395-2.132 c-1.621,0-3.658,0.188-5.232,1.438c-1.326,1.134-2.09,2.793-2.086,4.538c-0.025,1.434,0.525,2.817,1.525,3.844 c1.205,1.251,2.871,1.907,4.309,2.41l1.297,0.462c0.74,0.278,1.758,0.789,1.758,2.04c0,1.389-1.205,2.178-2.775,2.178 c-1.67,0-3.338-1.022-4.451-2.318l-2.963,3.432c1.982,2.196,4.826,3.415,7.783,3.337c2.457,0,4.4-0.648,6.021-2.132 c1.445-1.296,2.256-3.157,2.217-5.099C413.77,26.001,413.418,24.837,412.752,23.853z"></path> <path fill="#062674" d="M8.485,39.385l-3.558-7.813c1.593-0.797,3.316-1.301,5.087-1.487c2.528-0.32,5.072-0.519,7.596-0.858 c4.348-0.579,7.94-2.604,10.991-5.754c3.509-3.655,7.484-6.834,11.821-9.454c1.049-0.625,2.239-1.125,3.36-1.696 c1.907,2.288,3.71,4.53,5.495,6.673c-2.074,1.145-4.138,2.186-6.102,3.383c-2.846,1.767-5.489,3.841-7.882,6.186 c-1.602,1.525-3.173,3.101-4.816,4.576c-2.639,2.391-5.838,3.615-9.313,4.11c-2.521,0.359-5.076,0.484-7.589,0.874 c-1.674,0.259-3.298,0.801-5.064,1.247"></path> <path fill="#062674" d="M7.215,28.875c2.669-0.412,5.32-0.725,7.989-1.033c3.638-0.416,7.146-1.251,10.052-3.6 c1.907-1.557,3.665-3.337,5.465-5.038c2.625-2.485,5.52-4.67,8.63-6.514c1.068-0.629,2.071-1.189,3.218-1.808 c-1.144-1.368-2.185-2.711-3.279-4.026l-0.221,0.133c-4.804,2.591-9.159,5.938-12.897,9.915c-3.074,3.393-7.275,5.553-11.822,6.079 c-2.601,0.324-5.209,0.549-7.806,0.889C5,24.056,3.502,24.519,2.124,25.237c0.713,1.563,2.04,4.618,2.04,4.618 C5.141,29.415,6.165,29.087,7.215,28.875z"></path> <path fill="#062674" d="M1.331,23.452l0.229-0.095c2.341-1.026,4.824-1.435,7.36-1.613c3.531-0.252,7.047-0.584,10.331-2.113 c1.881-0.877,3.579-2.104,5.003-3.614c3.824-4.084,8.263-7.544,13.157-10.255c0.293-0.164,0.637-0.381,0.637-0.381 c-0.145-0.16-1.987-2.384-1.987-2.384s-1.548,0.885-2.067,1.189c-4.103,2.445-7.835,5.463-11.086,8.962 c-2.18,2.279-4.954,3.904-8.008,4.69c-2.879,0.786-5.85,0.843-8.771,1.145c-1.969,0.19-3.903,0.649-5.747,1.365 C0.232,20.409,0,20.52,0,20.52L1.331,23.452z"></path> </g> </svg> 