<?xml version="1.0" encoding="utf-8"?>
<!-- Generator: Adobe Illustrator 16.0.0, SVG Export Plug-In . SVG Version: 6.00 Build 0)  -->
<!DOCTYPE svg PUBLIC "-//W3C//DTD SVG 1.1//EN" "http://www.w3.org/Graphics/SVG/1.1/DTD/svg11.dtd">
<svg version="1.1" id="Capa_1" xmlns="http://www.w3.org/2000/svg" xmlns:xlink="http://www.w3.org/1999/xlink" x="0px" y="0px"
	 width="95.172px" height="95.172px" viewBox="0 0 95.172 95.172" enable-background="new 0 0 95.172 95.172" xml:space="preserve">
<g>
	<path fill="#FFFFFF" d="M93.104,0H2.069C0.926,0,0,0.927,0,2.069v91.035c0,1.143,0.927,2.068,2.069,2.068h91.033
		c1.145,0,2.069-0.927,2.069-2.068V2.069C95.172,0.927,94.246,0,93.104,0z M76.948,32.546L38.602,70.893
		c-0.24,0.239-0.555,0.359-0.869,0.359s-0.63-0.12-0.869-0.359L18.226,52.256c-0.23-0.23-0.36-0.543-0.36-0.869
		s0.13-0.639,0.36-0.869l6.542-6.542c0.461-0.461,1.277-0.461,1.738,0l11.227,11.226l30.936-30.936c0.461-0.461,1.276-0.461,1.738,0
		l6.541,6.542c0.229,0.23,0.36,0.543,0.36,0.869C77.309,32.003,77.178,32.315,76.948,32.546z"/>
</g>
</svg>
